# xmcd
#
# Track frame offsets:
#	150
#	15222
#	31182
#	43935
#	61454
#	79996
#	103001
#	122238
#	138960
#	152393
#	171235
#	191015
#	206924
#	223889
#	241391
#	256508
#	278000
#
# Disc length: 3918 seconds
#
# Revision: 1
# Processed by: cddbd v1.5.2PL0 Copyright (c) Steve Scherf et al.
# Submitted via: audiograbber 1.83.01
#
DISCID=ec0f4c11
DTITLE=Joe Dolan - Greatest Hits Live
DYEAR=2006
DGENRE=Pop
TTITLE0=You're Such A Good Looking Woman
TTITLE1=It's You, It's You
TTITLE2=Make Me An Island
TTITLE3=Hush Hush Maria
TTITLE4=Unchained Melody
TTITLE5=Sometimes When We Touch
TTITLE6=Come What May
TTITLE7=This Is My Life
TTITLE8=My First Love
TTITLE9=Angelover
TTITLE10=I'll Give All My Love To You
TTITLE11=Ciara
TTITLE12=Rosanna Tonight
TTITLE13=Endless Magic
TTITLE14=Dreaming
TTITLE15=I Won't Forget You
TTITLE16=Home Is Where The Heart Is
EXTD=
EXTT0=
EXTT1=
EXTT2=
EXTT3=
EXTT4=
EXTT5=
EXTT6=
EXTT7=
EXTT8=
EXTT9=
EXTT10=
EXTT11=
EXTT12=
EXTT13=
EXTT14=
EXTT15=
EXTT16=
PLAYORDER=
